<mxfile host="app.diagrams.net" agent="Mozilla/5.0 (Windows NT 10.0; Win64; x64) AppleWebKit/537.36 (KHTML, like Gecko) Chrome/130.0.0.0 Safari/537.36" version="24.8.4">
  <diagram name="PÃ¡gina-1" id="q6vjIyBOqwrU2EMw6Zm3">
    <mxGraphModel dx="2159" dy="3024" grid="1" gridSize="10" guides="1" tooltips="1" connect="1" arrows="1" fold="1" page="1" pageScale="1" pageWidth="827" pageHeight="1169" math="0" shadow="0">
      <root>
        <mxCell id="0" />
        <mxCell id="1" parent="0" />
        <mxCell id="tb1RHoqSBSulVYjN283y-7" value="AWS Cloud" style="points=[[0,0],[0.25,0],[0.5,0],[0.75,0],[1,0],[1,0.25],[1,0.5],[1,0.75],[1,1],[0.75,1],[0.5,1],[0.25,1],[0,1],[0,0.75],[0,0.5],[0,0.25]];outlineConnect=0;html=1;whiteSpace=wrap;fontSize=12;fontStyle=0;container=1;pointerEvents=0;collapsible=0;recursiveResize=0;shape=mxgraph.aws4.group;grIcon=mxgraph.aws4.group_aws_cloud;strokeColor=#d6b656;fillColor=#fff2cc;verticalAlign=top;align=left;spacingLeft=30;dashed=0;rotation=0;" parent="1" vertex="1">
          <mxGeometry x="-510" y="-2280" width="1078" height="796" as="geometry" />
        </mxCell>
        <mxCell id="tb1RHoqSBSulVYjN283y-2" value="" style="dashed=0;html=1;shape=mxgraph.aws3.cloud;fillColor=#F58536;gradientColor=none;dashed=0;" parent="tb1RHoqSBSulVYjN283y-7" vertex="1">
          <mxGeometry x="2" width="20" height="20" as="geometry" />
        </mxCell>
        <mxCell id="g1cawl0q5QP8x0kEphEZ-47" value="Amazon SQS" style="sketch=0;outlineConnect=0;fontColor=#232F3E;gradientColor=none;strokeColor=#ffffff;fillColor=#e7157b;dashed=0;verticalLabelPosition=middle;verticalAlign=bottom;align=center;html=1;whiteSpace=wrap;fontSize=10;fontStyle=1;spacing=3;shape=mxgraph.aws4.productIcon;prIcon=mxgraph.aws4.sqs;" vertex="1" parent="tb1RHoqSBSulVYjN283y-7">
          <mxGeometry x="40" y="361" width="80" height="100" as="geometry" />
        </mxCell>
        <mxCell id="g1cawl0q5QP8x0kEphEZ-48" value="Lambda" style="sketch=0;outlineConnect=0;fontColor=#232F3E;gradientColor=none;strokeColor=#ffffff;fillColor=#e7157b;dashed=0;verticalLabelPosition=middle;verticalAlign=bottom;align=center;html=1;whiteSpace=wrap;fontSize=10;fontStyle=1;spacing=3;shape=mxgraph.aws4.productIcon;prIcon=mxgraph.aws4.sqs;" vertex="1" parent="tb1RHoqSBSulVYjN283y-7">
          <mxGeometry x="329" y="100" width="80" height="100" as="geometry" />
        </mxCell>
        <mxCell id="g1cawl0q5QP8x0kEphEZ-49" style="edgeStyle=elbowEdgeStyle;rounded=0;orthogonalLoop=1;jettySize=auto;html=1;verticalAlign=middle;elbow=vertical;" edge="1" parent="tb1RHoqSBSulVYjN283y-7" source="g1cawl0q5QP8x0kEphEZ-50" target="g1cawl0q5QP8x0kEphEZ-57">
          <mxGeometry relative="1" as="geometry">
            <Array as="points">
              <mxPoint x="490" y="170" />
            </Array>
          </mxGeometry>
        </mxCell>
        <mxCell id="g1cawl0q5QP8x0kEphEZ-50" value="" style="sketch=0;points=[[0,0,0],[0.25,0,0],[0.5,0,0],[0.75,0,0],[1,0,0],[0,1,0],[0.25,1,0],[0.5,1,0],[0.75,1,0],[1,1,0],[0,0.25,0],[0,0.5,0],[0,0.75,0],[1,0.25,0],[1,0.5,0],[1,0.75,0]];outlineConnect=0;fontColor=#232F3E;fillColor=#ED7100;strokeColor=#ffffff;dashed=0;verticalLabelPosition=bottom;verticalAlign=top;align=center;html=1;fontSize=12;fontStyle=0;aspect=fixed;shape=mxgraph.aws4.resourceIcon;resIcon=mxgraph.aws4.lambda;" vertex="1" parent="tb1RHoqSBSulVYjN283y-7">
          <mxGeometry x="330" y="100" width="78" height="78" as="geometry" />
        </mxCell>
        <mxCell id="g1cawl0q5QP8x0kEphEZ-51" style="edgeStyle=elbowEdgeStyle;rounded=0;orthogonalLoop=1;jettySize=auto;html=1;" edge="1" parent="tb1RHoqSBSulVYjN283y-7" source="g1cawl0q5QP8x0kEphEZ-52" target="g1cawl0q5QP8x0kEphEZ-63">
          <mxGeometry relative="1" as="geometry" />
        </mxCell>
        <mxCell id="g1cawl0q5QP8x0kEphEZ-52" value="Amazon SNS" style="sketch=0;outlineConnect=0;fontColor=#232F3E;gradientColor=none;strokeColor=#ffffff;fillColor=#e7157b;dashed=0;verticalLabelPosition=middle;verticalAlign=bottom;align=center;html=1;whiteSpace=wrap;fontSize=10;fontStyle=1;spacing=3;shape=mxgraph.aws4.productIcon;prIcon=mxgraph.aws4.sns;" vertex="1" parent="tb1RHoqSBSulVYjN283y-7">
          <mxGeometry x="670" y="210" width="80" height="100" as="geometry" />
        </mxCell>
        <mxCell id="g1cawl0q5QP8x0kEphEZ-53" value="Servicios transversales" style="outlineConnect=0;gradientColor=none;html=1;whiteSpace=wrap;fontSize=12;fontStyle=0;strokeColor=#879196;fillColor=none;verticalAlign=top;align=center;fontColor=#879196;dashed=1;spacingTop=3;" vertex="1" parent="tb1RHoqSBSulVYjN283y-7">
          <mxGeometry x="280" y="500" width="480" height="200" as="geometry" />
        </mxCell>
        <mxCell id="g1cawl0q5QP8x0kEphEZ-54" value="" style="outlineConnect=0;dashed=0;verticalLabelPosition=bottom;verticalAlign=top;align=center;html=1;shape=mxgraph.aws3.iam;fillColor=#759C3E;gradientColor=none;" vertex="1" parent="tb1RHoqSBSulVYjN283y-7">
          <mxGeometry x="420" y="570" width="42" height="81" as="geometry" />
        </mxCell>
        <mxCell id="g1cawl0q5QP8x0kEphEZ-55" value="" style="sketch=0;points=[[0,0,0],[0.25,0,0],[0.5,0,0],[0.75,0,0],[1,0,0],[0,1,0],[0.25,1,0],[0.5,1,0],[0.75,1,0],[1,1,0],[0,0.25,0],[0,0.5,0],[0,0.75,0],[1,0.25,0],[1,0.5,0],[1,0.75,0]];points=[[0,0,0],[0.25,0,0],[0.5,0,0],[0.75,0,0],[1,0,0],[0,1,0],[0.25,1,0],[0.5,1,0],[0.75,1,0],[1,1,0],[0,0.25,0],[0,0.5,0],[0,0.75,0],[1,0.25,0],[1,0.5,0],[1,0.75,0]];outlineConnect=0;fontColor=#232F3E;fillColor=#E7157B;strokeColor=#ffffff;dashed=0;verticalLabelPosition=bottom;verticalAlign=top;align=center;html=1;fontSize=12;fontStyle=0;aspect=fixed;shape=mxgraph.aws4.resourceIcon;resIcon=mxgraph.aws4.cloudwatch_2;" vertex="1" parent="tb1RHoqSBSulVYjN283y-7">
          <mxGeometry x="562" y="570" width="78" height="78" as="geometry" />
        </mxCell>
        <mxCell id="g1cawl0q5QP8x0kEphEZ-56" style="edgeStyle=elbowEdgeStyle;rounded=0;orthogonalLoop=1;jettySize=auto;html=1;" edge="1" parent="tb1RHoqSBSulVYjN283y-7" source="g1cawl0q5QP8x0kEphEZ-57" target="g1cawl0q5QP8x0kEphEZ-52">
          <mxGeometry relative="1" as="geometry" />
        </mxCell>
        <mxCell id="g1cawl0q5QP8x0kEphEZ-57" value="Amazon S3" style="sketch=0;outlineConnect=0;fontColor=#232F3E;gradientColor=none;strokeColor=#ffffff;fillColor=#7aa116;dashed=0;verticalLabelPosition=middle;verticalAlign=bottom;align=center;html=1;whiteSpace=wrap;fontSize=10;fontStyle=1;spacing=3;shape=mxgraph.aws4.productIcon;prIcon=mxgraph.aws4.s3;" vertex="1" parent="tb1RHoqSBSulVYjN283y-7">
          <mxGeometry x="430" y="350" width="80" height="100" as="geometry" />
        </mxCell>
        <mxCell id="g1cawl0q5QP8x0kEphEZ-72" style="edgeStyle=elbowEdgeStyle;rounded=0;orthogonalLoop=1;jettySize=auto;html=1;entryX=1;entryY=0.5;entryDx=0;entryDy=0;fillColor=#FFE599;" edge="1" parent="tb1RHoqSBSulVYjN283y-7" source="g1cawl0q5QP8x0kEphEZ-58" target="tb1RHoqSBSulVYjN283y-7">
          <mxGeometry relative="1" as="geometry" />
        </mxCell>
        <mxCell id="g1cawl0q5QP8x0kEphEZ-58" value="" style="sketch=0;outlineConnect=0;fontColor=#232F3E;gradientColor=none;fillColor=#DD344C;strokeColor=none;dashed=0;verticalLabelPosition=bottom;verticalAlign=top;align=center;html=1;fontSize=12;fontStyle=0;aspect=fixed;shape=mxgraph.aws4.email;" vertex="1" parent="tb1RHoqSBSulVYjN283y-7">
          <mxGeometry x="960" y="388.77" width="48" height="42.46" as="geometry" />
        </mxCell>
        <mxCell id="g1cawl0q5QP8x0kEphEZ-62" value="" style="edgeStyle=orthogonalEdgeStyle;rounded=0;orthogonalLoop=1;jettySize=auto;html=1;" edge="1" parent="tb1RHoqSBSulVYjN283y-7" source="g1cawl0q5QP8x0kEphEZ-63" target="g1cawl0q5QP8x0kEphEZ-58">
          <mxGeometry relative="1" as="geometry" />
        </mxCell>
        <mxCell id="g1cawl0q5QP8x0kEphEZ-63" value="Topic" style="sketch=0;outlineConnect=0;fontColor=#232F3E;gradientColor=none;strokeColor=#232F3E;fillColor=#ffffff;dashed=0;verticalLabelPosition=bottom;verticalAlign=top;align=center;html=1;fontSize=12;fontStyle=0;aspect=fixed;shape=mxgraph.aws4.resourceIcon;resIcon=mxgraph.aws4.topic;" vertex="1" parent="tb1RHoqSBSulVYjN283y-7">
          <mxGeometry x="800" y="381" width="60" height="60" as="geometry" />
        </mxCell>
        <mxCell id="g1cawl0q5QP8x0kEphEZ-64" style="edgeStyle=orthogonalEdgeStyle;rounded=0;orthogonalLoop=1;jettySize=auto;html=1;entryX=0;entryY=0.5;entryDx=0;entryDy=0;entryPerimeter=0;" edge="1" parent="tb1RHoqSBSulVYjN283y-7" source="g1cawl0q5QP8x0kEphEZ-47" target="g1cawl0q5QP8x0kEphEZ-50">
          <mxGeometry relative="1" as="geometry" />
        </mxCell>
        <mxCell id="g1cawl0q5QP8x0kEphEZ-65" value="activa" style="text;strokeColor=none;align=center;fillColor=none;html=1;verticalAlign=middle;whiteSpace=wrap;rounded=0;" vertex="1" parent="tb1RHoqSBSulVYjN283y-7">
          <mxGeometry x="160" y="381" width="60" height="30" as="geometry" />
        </mxCell>
        <mxCell id="g1cawl0q5QP8x0kEphEZ-66" value="Almacena" style="text;strokeColor=none;align=center;fillColor=none;html=1;verticalAlign=middle;whiteSpace=wrap;rounded=0;" vertex="1" parent="tb1RHoqSBSulVYjN283y-7">
          <mxGeometry x="420" y="140" width="60" height="30" as="geometry" />
        </mxCell>
        <mxCell id="g1cawl0q5QP8x0kEphEZ-67" value="evento" style="text;strokeColor=none;align=center;fillColor=none;html=1;verticalAlign=middle;whiteSpace=wrap;rounded=0;" vertex="1" parent="tb1RHoqSBSulVYjN283y-7">
          <mxGeometry x="590" y="230" width="60" height="30" as="geometry" />
        </mxCell>
        <mxCell id="g1cawl0q5QP8x0kEphEZ-68" value="1" style="ellipse;whiteSpace=wrap;html=1;aspect=fixed;fillColor=#f8cecc;strokeColor=#b85450;" vertex="1" parent="tb1RHoqSBSulVYjN283y-7">
          <mxGeometry x="123" y="343.5" width="26.5" height="26.5" as="geometry" />
        </mxCell>
        <mxCell id="g1cawl0q5QP8x0kEphEZ-69" value="2" style="ellipse;whiteSpace=wrap;html=1;aspect=fixed;fillColor=#f8cecc;strokeColor=#b85450;" vertex="1" parent="tb1RHoqSBSulVYjN283y-7">
          <mxGeometry x="420" y="100" width="26.5" height="26.5" as="geometry" />
        </mxCell>
        <mxCell id="g1cawl0q5QP8x0kEphEZ-70" value="3" style="ellipse;whiteSpace=wrap;html=1;aspect=fixed;fillColor=#f8cecc;strokeColor=#b85450;" vertex="1" parent="tb1RHoqSBSulVYjN283y-7">
          <mxGeometry x="403.5" y="345.25" width="26.5" height="26.5" as="geometry" />
        </mxCell>
        <mxCell id="g1cawl0q5QP8x0kEphEZ-71" value="4" style="ellipse;whiteSpace=wrap;html=1;aspect=fixed;fillColor=#f8cecc;strokeColor=#b85450;" vertex="1" parent="tb1RHoqSBSulVYjN283y-7">
          <mxGeometry x="640" y="203.5" width="26.5" height="26.5" as="geometry" />
        </mxCell>
        <mxCell id="g1cawl0q5QP8x0kEphEZ-79" value="sqs-lab-yuriangelsena" style="text;whiteSpace=wrap;html=1;" vertex="1" parent="tb1RHoqSBSulVYjN283y-7">
          <mxGeometry x="20" y="450" width="120" height="20" as="geometry" />
        </mxCell>
        <mxCell id="g1cawl0q5QP8x0kEphEZ-98" value="4" style="ellipse;whiteSpace=wrap;html=1;aspect=fixed;fillColor=#f8cecc;strokeColor=#b85450;" vertex="1" parent="tb1RHoqSBSulVYjN283y-7">
          <mxGeometry x="393.5" y="543.5" width="26.5" height="26.5" as="geometry" />
        </mxCell>
        <mxCell id="g1cawl0q5QP8x0kEphEZ-97" value="6" style="ellipse;whiteSpace=wrap;html=1;aspect=fixed;fillColor=#f8cecc;strokeColor=#b85450;" vertex="1" parent="tb1RHoqSBSulVYjN283y-7">
          <mxGeometry x="532.75" y="543.5" width="26.5" height="26.5" as="geometry" />
        </mxCell>
        <mxCell id="g1cawl0q5QP8x0kEphEZ-59" value="" style="sketch=0;outlineConnect=0;fontColor=#232F3E;gradientColor=none;fillColor=#232F3D;strokeColor=none;dashed=0;verticalLabelPosition=bottom;verticalAlign=top;align=center;html=1;fontSize=12;fontStyle=0;aspect=fixed;pointerEvents=1;shape=mxgraph.aws4.authenticated_user;" vertex="1" parent="1">
          <mxGeometry x="580" y="-1919" width="78" height="78" as="geometry" />
        </mxCell>
        <mxCell id="g1cawl0q5QP8x0kEphEZ-75" value="" style="rounded=0;whiteSpace=wrap;html=1;fillColor=#dae8fc;strokeColor=#6c8ebf;" vertex="1" parent="1">
          <mxGeometry x="690" y="-2280" width="350" height="920" as="geometry" />
        </mxCell>
        <mxCell id="g1cawl0q5QP8x0kEphEZ-76" value="1" style="ellipse;whiteSpace=wrap;html=1;aspect=fixed;fillColor=#f8cecc;strokeColor=#b85450;" vertex="1" parent="1">
          <mxGeometry x="730" y="-2260" width="26.5" height="26.5" as="geometry" />
        </mxCell>
        <mxCell id="g1cawl0q5QP8x0kEphEZ-82" style="rounded=0;orthogonalLoop=1;jettySize=auto;html=1;" edge="1" parent="1">
          <mxGeometry relative="1" as="geometry">
            <mxPoint x="-543.5454545454547" y="-1861.27868852459" as="sourcePoint" />
            <mxPoint x="-508" y="-1862.5606557377048" as="targetPoint" />
          </mxGeometry>
        </mxCell>
        <mxCell id="g1cawl0q5QP8x0kEphEZ-85" value="" style="rounded=0;whiteSpace=wrap;html=1;" vertex="1" parent="1">
          <mxGeometry x="-640" y="-2000" width="110" height="330" as="geometry" />
        </mxCell>
        <mxCell id="g1cawl0q5QP8x0kEphEZ-86" value="" style="shape=image;editableCssRules=.*;verticalLabelPosition=bottom;labelBackgroundColor=default;verticalAlign=top;aspect=fixed;imageAspect=0;image=data:image/svg+xml,PHN2ZyB4bWxucz0iaHR0cDovL3d3dy53My5vcmcvMjAwMC9zdmciIHZpZXdCb3g9Ii0wLjUgLTAuNSAyNS44NjcgMjgiIGhlaWdodD0iMjgiIHdpZHRoPSIyNS44NjciPiYjeGE7CSAgPHN0eWxlIHR5cGU9InRleHQvY3NzIj4uc3QwIHsgc3RvcC1jb2xvcjogcmdiKDkxLCAxMTUsIDEzOSk7IH0gLnN0MSB7IHN0b3AtY29sb3I6IHJnYigzNCwgNTMsIDcyKTsgfSA8L3N0eWxlPiYjeGE7CTxkZWZzPiYjeGE7CQk8bGluZWFyR3JhZGllbnQgZ3JhZGllbnRVbml0cz0idXNlclNwYWNlT25Vc2UiIHkyPSIyMy42MTMiIHgyPSIyMy4yMjciIHkxPSIzLjQ3NCIgeDE9IjEuODQ2IiBpZD0iQSI+JiN4YTsJCQk8c3RvcCBjbGFzcz0ic3QwIi8+JiN4YTsJCQk8c3RvcCBjbGFzcz0ic3QxIiBvZmZzZXQ9IjEiLz4mI3hhOwkJPC9saW5lYXJHcmFkaWVudD4mI3hhOwk8L2RlZnM+JiN4YTsJPHBhdGggZmlsbD0idXJsKCNBKSIgZD0iTTEzLjM5IDI3LjVoLTEuOTE1Yy0uNjU2IDAtMS4yNTctLjIxOS0xLjgwMy0uNjU2YTIuNDYgMi40NiAwIDAgMS0uOTMxLTEuNTg1bC0uMzgzLTEuODA0LTIuMzUtMS40MjMtMS42NDEuNzFhMy42MSAzLjYxIDAgMCAxLTEuMDQuMTY1Yy0uNTA5IDAtMS4wMDMtLjEyOC0xLjQ3Ny0uMzgzLS40NTItLjI3MS0uODEzLS42NzEtMS4wMzgtMS4xNDhsLTEuMDM5LTIuMDIzYy0uMTY5LS4zNzktLjI2Mi0uNzg5LS4yNzMtMS4yMDRhMi43NSAyLjc1IDAgMCAxIDEuMTQ4LTIuMjk2bDEuMjU4LS45Mjl2LTIuODQ1bC0xLjMxMi0uOTgzQy0uMTM2IDEwLjU0Ni0uNSA5Ljc5OS0uNSA4Ljg1MmMwLS4zNjYuMDkxLS43NjcuMjczLTEuMjA0bDEuMDQtMi4wMjNjLjI1NS0uNTExLjYtLjg5MyAxLjAzOC0xLjE0OC40NzQtLjI1NS45NjgtLjM4MyAxLjQ3Ny0uMzgzLjQwMiAwIC43NDcuMDc0IDEuMDQuMjE5bDEuNjQxLjY1NiAyLjM1LTEuNDIzLjM4My0xLjgwMkEyLjY4IDIuNjggMCAwIDEgOS43MjcuMTU2YTIuNjEgMi42MSAwIDAgMSAxLjc1LS42NTZoMS45MTNhMi42MSAyLjYxIDAgMCAxIDEuNzUuNjU2Yy41MTEuNDAzLjg0LjkyOS45ODUgMS41ODZsLjMyNyAxLjgwNiAyLjQwNiAxLjQyMSAxLjY0Mi0uNjU2Yy4yOTEtLjE0NS42MzctLjIxOSAxLjA0LS4yMTlhMi43NyAyLjc3IDAgMCAxIDEuNDIxLjM4M2MuNDczLjI1NS44NC42MzcgMS4wOTQgMS4xNDhsLjk4NSAyLjAyM2MuMjE3LjM2Ni4zMjcuNzg0LjMyNyAxLjI1OCAwIC45MS0uMzgzIDEuNjQyLTEuMTQ4IDIuMTg4bC0xLjMxMi45ODV2Mi44NDRsMS4zMTMuOTI4Yy43NjUuNTg1IDEuMTQ4IDEuMzMyIDEuMTQ4IDIuMjQzIDAgLjQzOC0uMTEuODU4LS4zMjkgMS4yNThsLS45ODMgMi4wMjNjLS4yNTYuNTExLS42MTkuODkyLTEuMDk0IDEuMTQ4LS40MzcuMjU2LS45MS4zODMtMS40MjMuMzgzLS4zNjQgMC0uNzEtLjA1NC0xLjAzOC0uMTY1bC0xLjY0Mi0uNzEtMi40MDYgMS40MjMtLjMyNyAxLjgwMmMtLjE0Ny42NTgtLjQ3NCAxLjE4Ni0uOTg1IDEuNTg3YTIuNjEgMi42MSAwIDAgMS0xLjc1LjY1NnptLTcuMzgzLTguMjU4Yy40NzQgMCAuOTQ5LjE0NyAxLjQyMy40MzhsMi40MDYgMS40MjNjLjczLjQzOCAxLjE0OCAxLjA0IDEuMjU4IDEuODA0bC4zODIgMS44MDRoMS45MTVsLjMyOS0xLjgwNGMuMTgyLS44MDIuNjItMS40MDQgMS4zMTMtMS44MDRsMi4zNTItMS40MjNhMy4wNiAzLjA2IDAgMCAxIDEuNTI5LS40MzdjLjE4NCAwIC4zNDYuMDE3LjQ5NC4wNTRhNC4xNyA0LjE3IDAgMCAxIC40OTIuMTY1bDEuNjQyLjY1Ni45ODMtMi4wMjMtMS4yNTgtLjkyOWMtLjc2NS0uNTg0LTEuMTQ4LTEuMzMtMS4xNDgtMi4yNDJ2LTIuODQ1YzAtLjkxLjM4My0xLjY1NyAxLjE0OC0yLjI0bDEuMjU4LS45MzEtLjk4NS0yLjAyMy0xLjY0LjcxYy0uMzM1LjExMS0uNjg2LjE2Ni0xLjA0LjE2NS0uNTgzIDAtMS4wNzUtLjEyOC0xLjQ3Ny0uMzgzbC0yLjM1LTEuNDc3YTIuNjggMi42OCAwIDAgMS0xLjMxMi0xLjgwNEwxMy4zOSAyLjI5aC0xLjkxNWwtLjM4MiAxLjgwNGMtLjExLjc2Ni0uNTI4IDEuMzY3LTEuMjU4IDEuODA0TDcuNDgzIDcuMzc1Yy0uNDAxLjI1NS0uODkzLjM4My0xLjQ3NS4zODMtLjMyOSAwLS42OTMtLjA1Ni0xLjA5NC0uMTY1bC0xLjY0MS0uNzEtLjk4NSAyLjAyMyAxLjMxMy45MjljLjc2Ny41ODUgMS4xNSAxLjMzIDEuMTUgMi4yNDR2Mi44NDRjMCAuOTEtLjM4MyAxLjY1Ny0xLjE0OCAyLjI0bC0xLjMxMi45MzEgMS4wMzggMi4wMjMgMS42NDEtLjY1NmMuMjktLjE0NS42MzctLjIxOSAxLjA0LS4yMTl6bTYuNC0uMTY1YTUuNTcgNS41NyAwIDAgMS0yLjE4Ny0uNDM3Yy0uNjUzLS4yODktMS4yNDYtLjY5Ny0xLjc1LTEuMjAyYTUuNzcgNS43NyAwIDAgMS0xLjIwNC0xLjc1IDUuNTggNS41OCAwIDAgMS0uNDM3LTIuMTg3IDUuMjEgNS4yMSAwIDAgMSAuNDM4LTIuMTMzYy4yOTItLjY5My42OTMtMS4yOTUgMS4yMDQtMS44MDRzMS4wOTQtLjkxIDEuNzUtMS4yMDRhNS42IDUuNiAwIDAgMSAyLjE4OC0uNDM3Yy43NjUgMCAxLjQ5NS4xNDcgMi4xODguNDM4czEuMjk1LjY5MyAxLjgwNCAxLjIwNC45MSAxLjExMSAxLjIwNCAxLjgwNGMuMjkxLjY1Ni40MzggMS4zNjguNDM4IDIuMTMzYTUuNiA1LjYgMCAwIDEtLjQzNyAyLjE4OGMtLjI5LjY1My0uNjk4IDEuMjQ2LTEuMjA0IDEuNzUtLjUxMS41MTEtMS4xMTEuOTEtMS44MDQgMS4yMDRzLTEuNDIzLjQzNi0yLjE4Ny40MzZ6bTAtOC4zNjVjLS43NjcgMC0xLjQyMy4yNzEtMS45NjkuODE5LS4yNjQuMjU1LS40NzMuNTYxLS42MTQuODk5cy0uMjExLjcwMy0uMjA2IDEuMDY5YzAgLjc2Ny4yNzMgMS40MjMuODIxIDEuOTY5czEuMjAyLjgyMSAxLjk2OS44MjFjLjgwMiAwIDEuNDc3LS4yNzMgMi4wMjMtLjgyMXMuODIxLTEuMjA0LjgyMS0xLjk2OS0uMjczLTEuNDIzLS44MjEtMS45NjlhMi43NSAyLjc1IDAgMCAwLS45MjctLjYyYy0uMzQ4LS4xNDEtLjcyMS0uMjA4LTEuMDk2LS4xOTl6Ii8+JiN4YTs8L3N2Zz4=;" vertex="1" parent="1">
          <mxGeometry x="-617.21" y="-1990" width="72.43" height="78" as="geometry" />
        </mxCell>
        <mxCell id="g1cawl0q5QP8x0kEphEZ-87" value="" style="sketch=0;outlineConnect=0;fontColor=#232F3E;gradientColor=none;fillColor=#232F3D;strokeColor=none;dashed=0;verticalLabelPosition=bottom;verticalAlign=top;align=center;html=1;fontSize=12;fontStyle=0;aspect=fixed;pointerEvents=1;shape=mxgraph.aws4.user;" vertex="1" parent="1">
          <mxGeometry x="-620" y="-1899" width="78" height="78" as="geometry" />
        </mxCell>
        <mxCell id="g1cawl0q5QP8x0kEphEZ-88" value="" style="html=1;verticalLabelPosition=bottom;align=center;labelBackgroundColor=#ffffff;verticalAlign=top;strokeWidth=2;strokeColor=#333333;shadow=0;dashed=0;shape=mxgraph.ios7.icons.box;" vertex="1" parent="1">
          <mxGeometry x="-620" y="-1800" width="69" height="60" as="geometry" />
        </mxCell>
        <mxCell id="g1cawl0q5QP8x0kEphEZ-89" value="PublicaciÃ³n de Mensaje" style="text;strokeColor=none;align=center;fillColor=none;html=1;verticalAlign=middle;whiteSpace=wrap;rounded=0;" vertex="1" parent="1">
          <mxGeometry x="-615.5" y="-1730" width="60" height="30" as="geometry" />
        </mxCell>
        <mxCell id="g1cawl0q5QP8x0kEphEZ-90" value="&lt;p&gt;&lt;strong&gt;SQS - RecepciÃ³n de Mensajes AsÃ­ncronos&lt;/strong&gt;&lt;/p&gt;&lt;ul&gt;&lt;li&gt;&lt;strong&gt;FunciÃ³n&lt;/strong&gt;: Recibe mensajes de forma asÃ­ncrona.&lt;/li&gt;&lt;li&gt;&lt;strong&gt;DescripciÃ³n&lt;/strong&gt;: SQS actÃºa como un sistema de colas, donde se colocan los mensajes que se procesarÃ¡n de forma desacoplada.&lt;/li&gt;&lt;/ul&gt;" style="text;strokeColor=none;align=center;fillColor=none;html=1;verticalAlign=middle;whiteSpace=wrap;rounded=0;" vertex="1" parent="1">
          <mxGeometry x="740" y="-2333.5" width="290" height="260" as="geometry" />
        </mxCell>
        <mxCell id="g1cawl0q5QP8x0kEphEZ-91" value="2" style="ellipse;whiteSpace=wrap;html=1;aspect=fixed;fillColor=#f8cecc;strokeColor=#b85450;" vertex="1" parent="1">
          <mxGeometry x="730" y="-2110" width="26.5" height="26.5" as="geometry" />
        </mxCell>
        <mxCell id="g1cawl0q5QP8x0kEphEZ-92" value="&lt;p&gt;&lt;strong&gt;Lambda - Procesamiento de Mensajes&lt;/strong&gt;&lt;/p&gt;&lt;ul&gt;&lt;li&gt;&lt;strong&gt;FunciÃ³n&lt;/strong&gt;: Procesa los mensajes de SQS.&lt;/li&gt;&lt;li&gt;&lt;strong&gt;DescripciÃ³n&lt;/strong&gt;: Lambda extrae cada mensaje de la cola SQS, lo procesa y genera un archivo en formato JSON.&lt;/li&gt;&lt;/ul&gt;" style="text;strokeColor=none;align=center;fillColor=none;html=1;verticalAlign=middle;whiteSpace=wrap;rounded=0;" vertex="1" parent="1">
          <mxGeometry x="738.25" y="-2200" width="273.5" height="260" as="geometry" />
        </mxCell>
        <mxCell id="g1cawl0q5QP8x0kEphEZ-93" value="&lt;p&gt;&lt;strong&gt;S3 - Almacenamiento de Resultados&lt;/strong&gt;&lt;/p&gt;&lt;ul&gt;&lt;li&gt;&lt;strong&gt;FunciÃ³n&lt;/strong&gt;: Almacena los resultados procesados por Lambda.&lt;/li&gt;&lt;li&gt;&lt;strong&gt;DescripciÃ³n&lt;/strong&gt;: Lambda guarda cada mensaje procesado en un bucket de S3, organizando los datos para su posterior consulta.&lt;/li&gt;&lt;/ul&gt;" style="text;strokeColor=none;align=center;fillColor=none;html=1;verticalAlign=middle;whiteSpace=wrap;rounded=0;" vertex="1" parent="1">
          <mxGeometry x="740" y="-2063.5" width="270" height="260" as="geometry" />
        </mxCell>
        <mxCell id="g1cawl0q5QP8x0kEphEZ-94" value="3" style="ellipse;whiteSpace=wrap;html=1;aspect=fixed;fillColor=#f8cecc;strokeColor=#b85450;" vertex="1" parent="1">
          <mxGeometry x="730" y="-2000" width="26.5" height="26.5" as="geometry" />
        </mxCell>
        <mxCell id="g1cawl0q5QP8x0kEphEZ-95" value="4" style="ellipse;whiteSpace=wrap;html=1;aspect=fixed;fillColor=#f8cecc;strokeColor=#b85450;" vertex="1" parent="1">
          <mxGeometry x="730" y="-1854" width="26.5" height="26.5" as="geometry" />
        </mxCell>
        <mxCell id="g1cawl0q5QP8x0kEphEZ-96" value="&lt;p&gt;&lt;strong&gt;SNS - NotificaciÃ³n de Procesamiento Completo&lt;/strong&gt;&lt;/p&gt;&lt;ul&gt;&lt;li&gt;&lt;strong&gt;FunciÃ³n&lt;/strong&gt;: Notifica a los suscriptores que el procesamiento ha sido completado.&lt;/li&gt;&lt;li&gt;&lt;strong&gt;DescripciÃ³n&lt;/strong&gt;: SNS envÃ­a un mensaje de notificaciÃ³n a los suscriptores (por ejemplo, correo electrÃ³nico) cuando Lambda finaliza el procesamiento de un mensaje.&lt;/li&gt;&lt;/ul&gt;" style="text;strokeColor=none;align=center;fillColor=none;html=1;verticalAlign=middle;whiteSpace=wrap;rounded=0;" vertex="1" parent="1">
          <mxGeometry x="736" y="-1904" width="271" height="260" as="geometry" />
        </mxCell>
        <mxCell id="g1cawl0q5QP8x0kEphEZ-102" value="5" style="ellipse;whiteSpace=wrap;html=1;aspect=fixed;fillColor=#f8cecc;strokeColor=#b85450;" vertex="1" parent="1">
          <mxGeometry x="-116.5" y="-1736.5" width="26.5" height="26.5" as="geometry" />
        </mxCell>
        <mxCell id="g1cawl0q5QP8x0kEphEZ-103" value="5" style="ellipse;whiteSpace=wrap;html=1;aspect=fixed;fillColor=#f8cecc;strokeColor=#b85450;" vertex="1" parent="1">
          <mxGeometry x="730" y="-1680" width="26.5" height="26.5" as="geometry" />
        </mxCell>
        <mxCell id="g1cawl0q5QP8x0kEphEZ-104" value="6" style="ellipse;whiteSpace=wrap;html=1;aspect=fixed;fillColor=#f8cecc;strokeColor=#b85450;" vertex="1" parent="1">
          <mxGeometry x="730" y="-1530" width="26.5" height="26.5" as="geometry" />
        </mxCell>
        <mxCell id="g1cawl0q5QP8x0kEphEZ-105" value="&lt;p&gt;&lt;strong&gt;IAM - GestiÃ³n de Permisos&lt;/strong&gt;&lt;/p&gt;&lt;ul&gt;&lt;li&gt;&lt;strong&gt;FunciÃ³n&lt;/strong&gt;: Controla los permisos y accesos entre servicios.&lt;/li&gt;&lt;li&gt;&lt;strong&gt;DescripciÃ³n&lt;/strong&gt;: IAM gestiona los permisos para asegurar que SQS, Lambda, S3 y SNS interactÃºen de manera segura, limitando el acceso segÃºn los roles y polÃ­ticas asignados.&lt;/li&gt;&lt;/ul&gt;" style="text;strokeColor=none;align=center;fillColor=none;html=1;verticalAlign=middle;whiteSpace=wrap;rounded=0;" vertex="1" parent="1">
          <mxGeometry x="740" y="-1744" width="270" height="264" as="geometry" />
        </mxCell>
        <mxCell id="g1cawl0q5QP8x0kEphEZ-106" value="&lt;p&gt;&lt;strong&gt;CloudWatch - Monitoreo y Logs&lt;/strong&gt;&lt;/p&gt;&lt;ul&gt;&lt;li&gt;&lt;strong&gt;FunciÃ³n&lt;/strong&gt;: Proporciona monitoreo en tiempo real y almacenamiento de logs.&lt;/li&gt;&lt;li&gt;&lt;strong&gt;DescripciÃ³n&lt;/strong&gt;: CloudWatch permite monitorear la actividad y el rendimiento de SQS, Lambda y S3, ademÃ¡s de almacenar logs para el anÃ¡lisis y resoluciÃ³n de problemas.&lt;/li&gt;&lt;/ul&gt;" style="text;strokeColor=none;align=center;fillColor=none;html=1;verticalAlign=middle;whiteSpace=wrap;rounded=0;" vertex="1" parent="1">
          <mxGeometry x="741.75" y="-1590" width="270" height="264" as="geometry" />
        </mxCell>
      </root>
    </mxGraphModel>
  </diagram>
</mxfile>
